Coordinates
version=1
nRows=11
nColumns=63
inDegrees=yes

Units are S.I. units (second, meters, Newtons, ...)
If the header above contains a line with 'inDegrees', this indicates whether rotational values are in degrees (yes) or radians (no).

endheader
time	pelvis_tilt	pelvis_list	pelvis_rotation	pelvis_tx	pelvis_ty	pelvis_tz	hip_flexion_r	hip_adduction_r	hip_rotation_r	knee_angle_r	knee_angle_r_beta	ankle_angle_r	subtalar_angle_r	mtp_angle_r	hip_flexion_l	hip_adduction_l	hip_rotation_l	knee_angle_l	knee_angle_l_beta	ankle_angle_l	subtalar_angle_l	mtp_angle_l	L5_S1_Flex_Ext	L5_S1_Lat_Bending	L5_S1_axial_rotation	L4_L5_Flex_Ext	L4_L5_Lat_Bending	L4_L5_axial_rotation	L3_L4_Flex_Ext	L3_L4_Lat_Bending	L3_L4_axial_rotation	L2_L3_Flex_Ext	L2_L3_Lat_Bending	L2_L3_axial_rotation	L1_L2_Flex_Ext	L1_L2_Lat_Bending	L1_L2_axial_rotation	L1_T12_Flex_Ext	L1_T12_Lat_Bending	L1_T12_axial_rotation	Abs_r3	Abs_r2	Abs_r1	Abs_t1	Abs_t2	neck_flexion	neck_bending	neck_rotation	arm_flex_r	arm_add_r	arm_rot_r	elbow_flex_r	pro_sup_r	wrist_flex_r	wrist_dev_r	arm_flex_l	arm_add_l	arm_rot_l	elbow_flex_l	pro_sup_l	wrist_flex_l	wrist_dev_l
4.305085	0.001262	-2.270483	95.607158	0.234954	0.741722	0.642926	-3.068864	0.385332	5.164635	6.236307	0.108844	27.216437	-1.815780	0.000000	-3.202950	-0.564713	-10.467173	4.129032	0.072065	31.567036	13.586764	0.000000	-0.237726	0.668351	0.244672	-0.441481	0.888907	0.259964	-0.390560	1.625028	0.259964	-0.271697	1.625028	0.214088	-0.220752	1.362901	0.198796	-0.135837	1.035275	0.183504	-1.698052	7.560518	1.360790	0.000000	0.000000	27.540369	-4.965291	2.868478	11.945070	-14.326007	154.032638	10.935360	4.814532	-6.815081	-5.760399	5.083400	-5.680893	152.769720	0.625189	2.134934	-6.883638	-15.774656
4.322034	0.006973	-2.332616	95.658675	0.234774	0.741672	0.643246	-2.999862	0.404122	5.607959	6.102831	0.106514	27.226752	-2.299676	0.000000	-3.062512	-0.557998	-10.750599	4.206864	0.073424	31.624794	13.906392	0.000000	-0.230932	0.674449	0.240615	-0.428864	0.897018	0.255654	-0.379399	1.639857	0.255654	-0.263932	1.639857	0.210538	-0.214444	1.375337	0.195500	-0.131955	1.044722	0.180461	-1.649526	7.629508	1.338229	0.000000	0.000000	27.652925	-5.053069	2.943244	11.934302	-14.410104	154.071002	10.932552	4.718840	-7.068945	-5.772495	5.097709	-5.640102	152.627278	0.637068	2.099140	-6.692726	-15.783016
4.338983	0.003824	-2.385115	95.652650	0.234647	0.741632	0.643565	-2.932250	0.409857	6.079255	5.994214	0.104619	27.218506	-2.783208	0.000000	-2.954302	-0.535254	-11.030458	4.254437	0.074254	31.653887	14.164185	0.000000	-0.226244	0.679943	0.247971	-0.420157	0.904324	0.263470	-0.371696	1.653214	0.263470	-0.258574	1.653214	0.216975	-0.210090	1.386540	0.201477	-0.129276	1.053232	0.185979	-1.616036	7.691654	1.379143	0.000000	0.000000	27.723858	-5.131611	3.065748	11.922635	-14.483115	154.189772	10.914007	4.605650	-7.235700	-5.769656	5.131719	-5.588747	152.471845	0.647632	2.054611	-6.505086	-15.799038
4.355932	-0.012461	-2.431047	95.566714	0.234583	0.741594	0.643918	-2.844418	0.384493	6.416940	5.949123	0.103832	27.242423	-3.019537	0.000000	-2.877880	-0.488225	-11.262063	4.267093	0.074475	31.641346	14.272130	0.000000	-0.224658	0.684129	0.266290	-0.417212	0.909891	0.282933	-0.369090	1.663390	0.282933	-0.256761	1.663390	0.233004	-0.208617	1.395075	0.216361	-0.128369	1.059715	0.199717	-1.604708	7.739000	1.481025	0.000000	0.000000	27.743031	-5.198779	3.224233	11.940493	-14.562305	154.157715	10.931423	4.582531	-7.279679	-5.746479	5.170637	-5.531063	152.159741	0.658098	2.044444	-6.353476	-15.884670
4.372881	-0.048278	-2.481054	95.414029	0.234591	0.741544	0.644333	-2.728889	0.330020	6.715677	5.961517	0.104048	27.271290	-3.159059	0.000000	-2.805747	-0.415357	-11.456719	4.274872	0.074611	31.608053	14.255799	0.000000	-0.225483	0.685568	0.298536	-0.418745	0.911805	0.317194	-0.370446	1.666889	0.317194	-0.257705	1.666889	0.261219	-0.209384	1.398009	0.242560	-0.128841	1.061944	0.223902	-1.610603	7.755277	1.660365	0.000000	0.000000	27.732958	-5.273946	3.370520	11.949023	-14.654707	153.834643	10.973336	4.636943	-7.226104	-5.709582	5.242389	-5.475235	151.965612	0.663690	1.995281	-6.239337	-15.965129
4.389831	-0.102453	-2.539139	95.184744	0.234667	0.741478	0.644825	-2.575345	0.244369	6.964674	6.038077	0.105384	27.313778	-3.180065	0.000000	-2.724515	-0.323462	-11.773697	4.297791	0.075011	31.595535	14.310460	0.000000	-0.229144	0.684281	0.340698	-0.425544	0.910094	0.361992	-0.376461	1.663761	0.361992	-0.261889	1.663761	0.298111	-0.212784	1.395386	0.276817	-0.130933	1.059951	0.255524	-1.636756	7.740725	1.894862	0.000000	0.000000	27.698404	-5.354379	3.486130	11.977881	-14.737668	153.516482	11.030929	4.599457	-7.044219	-5.678511	5.328974	-5.421491	151.775422	0.665377	1.929686	-6.186587	-16.056801
4.406780	-0.178127	-2.610060	94.914720	0.234779	0.741398	0.645383	-2.380083	0.119818	7.023335	6.179683	0.107856	27.415386	-2.919656	0.000000	-2.624191	-0.210039	-12.097503	4.338035	0.075713	31.594922	14.337279	0.000000	-0.234689	0.679706	0.388627	-0.435841	0.904009	0.412917	-0.385571	1.652637	0.412917	-0.268226	1.652637	0.340049	-0.217932	1.386056	0.315760	-0.134101	1.052864	0.291471	-1.676361	7.688968	2.161429	0.000000	0.000000	27.661884	-5.435827	3.564922	12.021183	-14.827477	152.935833	11.142261	4.573724	-6.761487	-5.646950	5.432467	-5.374305	151.528050	0.665973	1.859029	-6.155058	-16.159943
4.423729	-0.270015	-2.701427	94.611797	0.234928	0.741308	0.645983	-2.139058	-0.031653	6.966085	6.376446	0.111290	27.562060	-2.490927	0.000000	-2.499136	-0.081802	-12.492261	4.388415	0.076592	31.617668	14.434817	0.000000	-0.240461	0.672456	0.440723	-0.446560	0.894366	0.468269	-0.395053	1.635009	0.468269	-0.274823	1.635009	0.385633	-0.223292	1.371272	0.358088	-0.137399	1.041634	0.330543	-1.717588	7.606956	2.451171	0.000000	0.000000	27.631147	-5.521495	3.608563	12.067339	-14.913103	152.172474	11.276462	4.548353	-6.409568	-5.626913	5.550657	-5.330921	151.204193	0.664901	1.826404	-6.122692	-16.230519
4.440678	-0.376699	-2.808985	94.271110	0.235115	0.741217	0.646564	-1.857799	-0.216446	6.682768	6.628189	0.115684	27.794983	-1.712183	0.000000	-2.377776	0.071046	-12.799500	4.398435	0.076767	31.625800	14.399940	0.000000	-0.245816	0.662989	0.502320	-0.456505	0.881775	0.533715	-0.403851	1.611991	0.533715	-0.280943	1.611991	0.439530	-0.228265	1.351967	0.408135	-0.140459	1.026970	0.376740	-1.755838	7.499863	2.793753	0.000000	0.000000	27.613126	-5.623297	3.601593	12.101808	-14.996879	151.262826	11.413005	4.625836	-6.033060	-5.652126	5.691511	-5.283826	150.931470	0.662787	1.837920	-6.088927	-16.240230
4.457627	-0.495291	-2.934324	93.932025	0.235340	0.741135	0.647141	-1.540451	-0.418926	6.241606	6.926562	0.120891	28.069050	-0.762569	0.000000	-2.224708	0.224602	-13.253042	4.439466	0.077483	31.669439	14.560907	0.000000	-0.249692	0.651193	0.569157	-0.463702	0.866087	0.604729	-0.410218	1.583311	0.604729	-0.285373	1.583311	0.498013	-0.231864	1.327913	0.462440	-0.142674	1.008698	0.426868	-1.783522	7.366427	3.165481	0.000000	0.000000	27.605483	-5.750673	3.532712	12.126958	-15.076151	150.101348	11.585498	4.716112	-5.686357	-5.697808	5.854925	-5.241101	150.680287	0.654925	1.807820	-5.985182	-16.171624
4.474576	-0.620207	-3.064415	93.599429	0.235588	0.741073	0.647646	-1.217429	-0.627907	5.736591	7.245327	0.126455	28.361144	0.244006	0.000000	-2.081791	0.385416	-13.654656	4.456408	0.077779	31.702016	14.678009	0.000000	-0.252173	0.638438	0.643936	-0.468311	0.849123	0.684182	-0.414295	1.552298	0.684182	-0.288209	1.552298	0.563444	-0.234168	1.301903	0.523198	-0.144092	0.988941	0.482952	-1.801248	7.222139	3.581380	0.000000	0.000000	27.608818	-5.895207	3.446994	12.113138	-15.123393	149.165058	11.681467	4.742942	-5.387699	-5.801246	6.052666	-5.189173	150.769311	0.639711	1.729177	-5.889142	-15.987288
